# xmcd
#
# Track frame offsets: 
#        150
#        17420
#        36232
#        55630
#        74477
#        85917
#        122267
#        146415
#        166722
#        199542
#        235822
#
# Disc length: 3674 seconds
#
# Revision: 0
# Processed by: cddbd v1.5PL3 Copyright (c) Steve Scherf et al.
# Submitted via: ExactAudioCopy v0.95a5
#
DISCID=810e580b
DTITLE=Clarence Carter - LIVE  WITH THE "DR."
DYEAR=1900
DGENRE=
TTITLE0=I like To Screw
TTITLE1=There Are Some Vultures
TTITLE2=Don't Stop Pushing
TTITLE3=Another Night
TTITLE4=Intro
TTITLE5=Dr. C.C.
TTITLE6=Too Weak to Fight
TTITLE7=Patches
TTITLE8=Slip Away
TTITLE9=Love Me With a Feeling
TTITLE10=Strokin'
EXTD=
EXTT0=
EXTT1=
EXTT2=
EXTT3=
EXTT4=
EXTT5=
EXTT6=
EXTT7=
EXTT8=
EXTT9=
EXTT10=
PLAYORDER=
